<?xml version="1.0" encoding="UTF-8" standalone="no"?>
<!DOCTYPE svg PUBLIC "-//W3C//DTD SVG 1.1//EN"
 "http://www.w3.org/Graphics/SVG/1.1/DTD/svg11.dtd">
<!-- Generated by graphviz version 2.47.3 (20210619.1520)
 -->
<!-- Title: dependencies Pages: 1 -->
<svg width="3181pt" height="247pt"
 viewBox="0.00 0.00 3181.00 246.80" xmlns="http://www.w3.org/2000/svg" xmlns:xlink="http://www.w3.org/1999/xlink">
<g id="graph0" class="graph" transform="scale(1 1) rotate(0) translate(4 242.8)">
<title>dependencies</title>
<polygon fill="white" stroke="transparent" points="-4,4 -4,-242.8 3177,-242.8 3177,4 -4,4"/>
<text text-anchor="middle" x="1586.5" y="-8.2" font-family="sans-serif" font-size="14.00">dependencies</text>
<g id="clust1" class="cluster">
<title>cluster_AppModule</title>
<polygon fill="none" stroke="black" stroke-dasharray="1,5" points="8,-32.8 8,-230.8 3165,-230.8 3165,-32.8 8,-32.8"/>
</g>
<g id="clust2" class="cluster">
<title>cluster_AppModule_declarations</title>
<polygon fill="none" stroke="black" points="706,-40.8 706,-92.8 3157,-92.8 3157,-40.8 706,-40.8"/>
</g>
<g id="clust19" class="cluster">
<title>cluster_AppModule_imports</title>
<polygon fill="none" stroke="black" points="554,-40.8 554,-92.8 698,-92.8 698,-40.8 554,-40.8"/>
</g>
<g id="clust21" class="cluster">
<title>cluster_AppModule_bootstrap</title>
<polygon fill="none" stroke="black" points="1650,-170.8 1650,-222.8 1774,-222.8 1774,-170.8 1650,-170.8"/>
</g>
<g id="clust22" class="cluster">
<title>cluster_AppModule_providers</title>
<polygon fill="none" stroke="black" points="16,-40.8 16,-92.8 546,-92.8 546,-40.8 16,-40.8"/>
</g>
<!-- AppComponent -->
<g id="node1" class="node">
<title>AppComponent</title>
<polygon fill="#ffffb3" stroke="black" points="3148.94,-84.8 3043.06,-84.8 3043.06,-48.8 3148.94,-48.8 3148.94,-84.8"/>
<text text-anchor="middle" x="3096" y="-62.6" font-family="Times,serif" font-size="14.00">AppComponent</text>
</g>
<!-- AppModule -->
<g id="node17" class="node">
<title>AppModule</title>
<polygon fill="#8dd3c7" stroke="black" points="1753.66,-149.8 1750.66,-153.8 1729.66,-153.8 1726.66,-149.8 1670.34,-149.8 1670.34,-113.8 1753.66,-113.8 1753.66,-149.8"/>
<text text-anchor="middle" x="1712" y="-127.6" font-family="Times,serif" font-size="14.00">AppModule</text>
</g>
<!-- AppComponent&#45;&gt;AppModule -->
<g id="edge1" class="edge">
<title>AppComponent&#45;&gt;AppModule</title>
<path fill="none" stroke="black" d="M3096,-84.95C3096,-108.56 3096,-146.8 3096,-146.8 3096,-146.8 1763.8,-146.8 1763.8,-146.8"/>
<polygon fill="black" stroke="black" points="1763.8,-143.3 1753.8,-146.8 1763.8,-150.3 1763.8,-143.3"/>
</g>
<!-- FooterComponent -->
<g id="node2" class="node">
<title>FooterComponent</title>
<polygon fill="#ffffb3" stroke="black" points="3024.88,-84.8 2907.12,-84.8 2907.12,-48.8 3024.88,-48.8 3024.88,-84.8"/>
<text text-anchor="middle" x="2966" y="-62.6" font-family="Times,serif" font-size="14.00">FooterComponent</text>
</g>
<!-- FooterComponent&#45;&gt;AppModule -->
<g id="edge2" class="edge">
<title>FooterComponent&#45;&gt;AppModule</title>
<path fill="none" stroke="black" d="M2966,-84.81C2966,-107.29 2966,-142.8 2966,-142.8 2966,-142.8 1763.72,-142.8 1763.72,-142.8"/>
<polygon fill="black" stroke="black" points="1763.72,-139.3 1753.72,-142.8 1763.72,-146.3 1763.72,-139.3"/>
</g>
<!-- HeaderComponent -->
<g id="node3" class="node">
<title>HeaderComponent</title>
<polygon fill="#ffffb3" stroke="black" points="2888.74,-84.8 2767.26,-84.8 2767.26,-48.8 2888.74,-48.8 2888.74,-84.8"/>
<text text-anchor="middle" x="2828" y="-62.6" font-family="Times,serif" font-size="14.00">HeaderComponent</text>
</g>
<!-- HeaderComponent&#45;&gt;AppModule -->
<g id="edge3" class="edge">
<title>HeaderComponent&#45;&gt;AppModule</title>
<path fill="none" stroke="black" d="M2828,-84.84C2828,-106.46 2828,-139.8 2828,-139.8 2828,-139.8 1763.71,-139.8 1763.71,-139.8"/>
<polygon fill="black" stroke="black" points="1763.71,-136.3 1753.71,-139.8 1763.71,-143.3 1763.71,-136.3"/>
</g>
<!-- HomeComponent -->
<g id="node4" class="node">
<title>HomeComponent</title>
<polygon fill="#ffffb3" stroke="black" points="2748.55,-84.8 2633.45,-84.8 2633.45,-48.8 2748.55,-48.8 2748.55,-84.8"/>
<text text-anchor="middle" x="2691" y="-62.6" font-family="Times,serif" font-size="14.00">HomeComponent</text>
</g>
<!-- HomeComponent&#45;&gt;AppModule -->
<g id="edge4" class="edge">
<title>HomeComponent&#45;&gt;AppModule</title>
<path fill="none" stroke="black" d="M2691,-84.93C2691,-105.37 2691,-135.8 2691,-135.8 2691,-135.8 1763.75,-135.8 1763.75,-135.8"/>
<polygon fill="black" stroke="black" points="1763.75,-132.3 1753.75,-135.8 1763.75,-139.3 1763.75,-132.3"/>
</g>
<!-- LearnComponent -->
<g id="node5" class="node">
<title>LearnComponent</title>
<polygon fill="#ffffb3" stroke="black" points="2614.97,-84.8 2501.03,-84.8 2501.03,-48.8 2614.97,-48.8 2614.97,-84.8"/>
<text text-anchor="middle" x="2558" y="-62.6" font-family="Times,serif" font-size="14.00">LearnComponent</text>
</g>
<!-- LearnComponent&#45;&gt;AppModule -->
<g id="edge5" class="edge">
<title>LearnComponent&#45;&gt;AppModule</title>
<path fill="none" stroke="black" d="M2558,-84.91C2558,-104.14 2558,-131.8 2558,-131.8 2558,-131.8 1763.66,-131.8 1763.66,-131.8"/>
<polygon fill="black" stroke="black" points="1763.66,-128.3 1753.66,-131.8 1763.66,-135.3 1763.66,-128.3"/>
</g>
<!-- LoaderComponent -->
<g id="node6" class="node">
<title>LoaderComponent</title>
<polygon fill="#ffffb3" stroke="black" points="2483.47,-84.8 2362.53,-84.8 2362.53,-48.8 2483.47,-48.8 2483.47,-84.8"/>
<text text-anchor="middle" x="2423" y="-62.6" font-family="Times,serif" font-size="14.00">LoaderComponent</text>
</g>
<!-- LoaderComponent&#45;&gt;AppModule -->
<g id="edge6" class="edge">
<title>LoaderComponent&#45;&gt;AppModule</title>
<path fill="none" stroke="black" d="M2423,-85.07C2423,-103.36 2423,-128.8 2423,-128.8 2423,-128.8 1763.82,-128.8 1763.82,-128.8"/>
<polygon fill="black" stroke="black" points="1763.82,-125.3 1753.82,-128.8 1763.82,-132.3 1763.82,-125.3"/>
</g>
<!-- LoginComponent -->
<g id="node7" class="node">
<title>LoginComponent</title>
<polygon fill="#ffffb3" stroke="black" points="2344.28,-84.8 2229.72,-84.8 2229.72,-48.8 2344.28,-48.8 2344.28,-84.8"/>
<text text-anchor="middle" x="2287" y="-62.6" font-family="Times,serif" font-size="14.00">LoginComponent</text>
</g>
<!-- LoginComponent&#45;&gt;AppModule -->
<g id="edge7" class="edge">
<title>LoginComponent&#45;&gt;AppModule</title>
<path fill="none" stroke="black" d="M2287,-84.83C2287,-101.86 2287,-124.8 2287,-124.8 2287,-124.8 1763.82,-124.8 1763.82,-124.8"/>
<polygon fill="black" stroke="black" points="1763.82,-121.3 1753.82,-124.8 1763.82,-128.3 1763.82,-121.3"/>
</g>
<!-- ModalLanguageComponent -->
<g id="node8" class="node">
<title>ModalLanguageComponent</title>
<polygon fill="#ffffb3" stroke="black" points="2211.58,-84.8 2038.42,-84.8 2038.42,-48.8 2211.58,-48.8 2211.58,-84.8"/>
<text text-anchor="middle" x="2125" y="-62.6" font-family="Times,serif" font-size="14.00">ModalLanguageComponent</text>
</g>
<!-- ModalLanguageComponent&#45;&gt;AppModule -->
<g id="edge8" class="edge">
<title>ModalLanguageComponent&#45;&gt;AppModule</title>
<path fill="none" stroke="black" d="M2125,-84.81C2125,-100.85 2125,-121.8 2125,-121.8 2125,-121.8 1763.87,-121.8 1763.87,-121.8"/>
<polygon fill="black" stroke="black" points="1763.87,-118.3 1753.87,-121.8 1763.87,-125.3 1763.87,-118.3"/>
</g>
<!-- ModalLoginComponent -->
<g id="node9" class="node">
<title>ModalLoginComponent</title>
<polygon fill="#ffffb3" stroke="black" points="2020.83,-84.8 1869.17,-84.8 1869.17,-48.8 2020.83,-48.8 2020.83,-84.8"/>
<text text-anchor="middle" x="1945" y="-62.6" font-family="Times,serif" font-size="14.00">ModalLoginComponent</text>
</g>
<!-- ModalLoginComponent&#45;&gt;AppModule -->
<g id="edge9" class="edge">
<title>ModalLoginComponent&#45;&gt;AppModule</title>
<path fill="none" stroke="black" d="M1945,-84.92C1945,-99.58 1945,-117.8 1945,-117.8 1945,-117.8 1763.92,-117.8 1763.92,-117.8"/>
<polygon fill="black" stroke="black" points="1763.92,-114.3 1753.92,-117.8 1763.92,-121.3 1763.92,-114.3"/>
</g>
<!-- Page404Component -->
<g id="node10" class="node">
<title>Page404Component</title>
<polygon fill="#ffffb3" stroke="black" points="1851.54,-84.8 1722.46,-84.8 1722.46,-48.8 1851.54,-48.8 1851.54,-84.8"/>
<text text-anchor="middle" x="1787" y="-62.6" font-family="Times,serif" font-size="14.00">Page404Component</text>
</g>
<!-- Page404Component&#45;&gt;AppModule -->
<g id="edge10" class="edge">
<title>Page404Component&#45;&gt;AppModule</title>
<path fill="none" stroke="black" d="M1738.03,-84.91C1738.03,-84.91 1738.03,-103.79 1738.03,-103.79"/>
<polygon fill="black" stroke="black" points="1734.53,-103.79 1738.03,-113.79 1741.53,-103.79 1734.53,-103.79"/>
</g>
<!-- PrivacityComponent -->
<g id="node11" class="node">
<title>PrivacityComponent</title>
<polygon fill="#ffffb3" stroke="black" points="1703.88,-84.8 1572.12,-84.8 1572.12,-48.8 1703.88,-48.8 1703.88,-84.8"/>
<text text-anchor="middle" x="1638" y="-62.6" font-family="Times,serif" font-size="14.00">PrivacityComponent</text>
</g>
<!-- PrivacityComponent&#45;&gt;AppModule -->
<g id="edge11" class="edge">
<title>PrivacityComponent&#45;&gt;AppModule</title>
<path fill="none" stroke="black" d="M1687.06,-84.91C1687.06,-84.91 1687.06,-103.79 1687.06,-103.79"/>
<polygon fill="black" stroke="black" points="1683.56,-103.79 1687.06,-113.79 1690.56,-103.79 1683.56,-103.79"/>
</g>
<!-- ProductsComponent -->
<g id="node12" class="node">
<title>ProductsComponent</title>
<polygon fill="#ffffb3" stroke="black" points="1554.33,-84.8 1423.67,-84.8 1423.67,-48.8 1554.33,-48.8 1554.33,-84.8"/>
<text text-anchor="middle" x="1489" y="-62.6" font-family="Times,serif" font-size="14.00">ProductsComponent</text>
</g>
<!-- ProductsComponent&#45;&gt;AppModule -->
<g id="edge12" class="edge">
<title>ProductsComponent&#45;&gt;AppModule</title>
<path fill="none" stroke="black" d="M1489,-84.92C1489,-99.58 1489,-117.8 1489,-117.8 1489,-117.8 1660.32,-117.8 1660.32,-117.8"/>
<polygon fill="black" stroke="black" points="1660.32,-121.3 1670.32,-117.8 1660.32,-114.3 1660.32,-121.3"/>
</g>
<!-- SafetyComponent -->
<g id="node13" class="node">
<title>SafetyComponent</title>
<polygon fill="#ffffb3" stroke="black" points="1405.6,-84.8 1288.4,-84.8 1288.4,-48.8 1405.6,-48.8 1405.6,-84.8"/>
<text text-anchor="middle" x="1347" y="-62.6" font-family="Times,serif" font-size="14.00">SafetyComponent</text>
</g>
<!-- SafetyComponent&#45;&gt;AppModule -->
<g id="edge13" class="edge">
<title>SafetyComponent&#45;&gt;AppModule</title>
<path fill="none" stroke="black" d="M1347,-84.81C1347,-100.85 1347,-121.8 1347,-121.8 1347,-121.8 1660.13,-121.8 1660.13,-121.8"/>
<polygon fill="black" stroke="black" points="1660.13,-125.3 1670.13,-121.8 1660.13,-118.3 1660.13,-125.3"/>
</g>
<!-- SecretLoveMegaComponent -->
<g id="node14" class="node">
<title>SecretLoveMegaComponent</title>
<polygon fill="#ffffb3" stroke="black" points="1270.45,-84.8 1093.55,-84.8 1093.55,-48.8 1270.45,-48.8 1270.45,-84.8"/>
<text text-anchor="middle" x="1182" y="-62.6" font-family="Times,serif" font-size="14.00">SecretLoveMegaComponent</text>
</g>
<!-- SecretLoveMegaComponent&#45;&gt;AppModule -->
<g id="edge14" class="edge">
<title>SecretLoveMegaComponent&#45;&gt;AppModule</title>
<path fill="none" stroke="black" d="M1182,-84.83C1182,-101.86 1182,-124.8 1182,-124.8 1182,-124.8 1659.97,-124.8 1659.97,-124.8"/>
<polygon fill="black" stroke="black" points="1659.97,-128.3 1669.97,-124.8 1659.97,-121.3 1659.97,-128.3"/>
</g>
<!-- SecretLovePlusComponent -->
<g id="node15" class="node">
<title>SecretLovePlusComponent</title>
<polygon fill="#ffffb3" stroke="black" points="1075.7,-84.8 906.3,-84.8 906.3,-48.8 1075.7,-48.8 1075.7,-84.8"/>
<text text-anchor="middle" x="991" y="-62.6" font-family="Times,serif" font-size="14.00">SecretLovePlusComponent</text>
</g>
<!-- SecretLovePlusComponent&#45;&gt;AppModule -->
<g id="edge15" class="edge">
<title>SecretLovePlusComponent&#45;&gt;AppModule</title>
<path fill="none" stroke="black" d="M991,-85.07C991,-103.36 991,-128.8 991,-128.8 991,-128.8 1660.12,-128.8 1660.12,-128.8"/>
<polygon fill="black" stroke="black" points="1660.12,-132.3 1670.12,-128.8 1660.12,-125.3 1660.12,-132.3"/>
</g>
<!-- SecretLoveUltraComponent -->
<g id="node16" class="node">
<title>SecretLoveUltraComponent</title>
<polygon fill="#ffffb3" stroke="black" points="887.84,-84.8 714.16,-84.8 714.16,-48.8 887.84,-48.8 887.84,-84.8"/>
<text text-anchor="middle" x="801" y="-62.6" font-family="Times,serif" font-size="14.00">SecretLoveUltraComponent</text>
</g>
<!-- SecretLoveUltraComponent&#45;&gt;AppModule -->
<g id="edge16" class="edge">
<title>SecretLoveUltraComponent&#45;&gt;AppModule</title>
<path fill="none" stroke="black" d="M801,-84.91C801,-104.14 801,-131.8 801,-131.8 801,-131.8 1660.19,-131.8 1660.19,-131.8"/>
<polygon fill="black" stroke="black" points="1660.19,-135.3 1670.19,-131.8 1660.19,-128.3 1660.19,-135.3"/>
</g>
<!-- AppComponent  -->
<g id="node19" class="node">
<title>AppComponent </title>
<polygon fill="#80b1d3" stroke="black" points="1766.44,-214.8 1657.56,-214.8 1657.56,-178.8 1766.44,-178.8 1766.44,-214.8"/>
<text text-anchor="middle" x="1712" y="-192.6" font-family="Times,serif" font-size="14.00">AppComponent </text>
</g>
<!-- AppModule&#45;&gt;AppComponent  -->
<g id="edge18" class="edge">
<title>AppModule&#45;&gt;AppComponent </title>
<path fill="none" stroke="black" stroke-dasharray="1,5" d="M1712,-149.91C1712,-149.91 1712,-168.79 1712,-168.79"/>
<polygon fill="black" stroke="black" points="1708.5,-168.79 1712,-178.79 1715.5,-168.79 1708.5,-168.79"/>
</g>
<!-- AppRoutingModule -->
<g id="node18" class="node">
<title>AppRoutingModule</title>
<polygon fill="#8dd3c7" stroke="black" points="690.27,-84.8 687.27,-88.8 666.27,-88.8 663.27,-84.8 561.73,-84.8 561.73,-48.8 690.27,-48.8 690.27,-84.8"/>
<text text-anchor="middle" x="626" y="-62.6" font-family="Times,serif" font-size="14.00">AppRoutingModule</text>
</g>
<!-- AppRoutingModule&#45;&gt;AppModule -->
<g id="edge17" class="edge">
<title>AppRoutingModule&#45;&gt;AppModule</title>
<path fill="none" stroke="black" d="M626,-84.93C626,-105.37 626,-135.8 626,-135.8 626,-135.8 1660.09,-135.8 1660.09,-135.8"/>
<polygon fill="black" stroke="black" points="1660.09,-139.3 1670.09,-135.8 1660.09,-132.3 1660.09,-139.3"/>
</g>
<!-- LanguageInterceptor -->
<g id="node20" class="node">
<title>LanguageInterceptor</title>
<ellipse fill="#fdb462" stroke="black" cx="447" cy="-66.8" rx="91.43" ry="18"/>
<text text-anchor="middle" x="447" y="-62.6" font-family="Times,serif" font-size="14.00">LanguageInterceptor</text>
</g>
<!-- LanguageInterceptor&#45;&gt;AppModule -->
<g id="edge19" class="edge">
<title>LanguageInterceptor&#45;&gt;AppModule</title>
<path fill="none" stroke="black" d="M447,-84.84C447,-106.46 447,-139.8 447,-139.8 447,-139.8 1660.27,-139.8 1660.27,-139.8"/>
<polygon fill="black" stroke="black" points="1660.27,-143.3 1670.27,-139.8 1660.27,-136.3 1660.27,-143.3"/>
</g>
<!-- LoaderInterceptor -->
<g id="node21" class="node">
<title>LoaderInterceptor</title>
<ellipse fill="#fdb462" stroke="black" cx="257" cy="-66.8" rx="80.98" ry="18"/>
<text text-anchor="middle" x="257" y="-62.6" font-family="Times,serif" font-size="14.00">LoaderInterceptor</text>
</g>
<!-- LoaderInterceptor&#45;&gt;AppModule -->
<g id="edge20" class="edge">
<title>LoaderInterceptor&#45;&gt;AppModule</title>
<path fill="none" stroke="black" d="M257,-84.81C257,-107.29 257,-142.8 257,-142.8 257,-142.8 1660.02,-142.8 1660.02,-142.8"/>
<polygon fill="black" stroke="black" points="1660.02,-146.3 1670.02,-142.8 1660.02,-139.3 1660.02,-146.3"/>
</g>
<!-- LoaderService -->
<g id="node22" class="node">
<title>LoaderService</title>
<ellipse fill="#fdb462" stroke="black" cx="91" cy="-66.8" rx="67.17" ry="18"/>
<text text-anchor="middle" x="91" y="-62.6" font-family="Times,serif" font-size="14.00">LoaderService</text>
</g>
<!-- LoaderService&#45;&gt;AppModule -->
<g id="edge21" class="edge">
<title>LoaderService&#45;&gt;AppModule</title>
<path fill="none" stroke="black" d="M91,-84.95C91,-108.56 91,-146.8 91,-146.8 91,-146.8 1660.3,-146.8 1660.3,-146.8"/>
<polygon fill="black" stroke="black" points="1660.3,-150.3 1670.3,-146.8 1660.3,-143.3 1660.3,-150.3"/>
</g>
</g>
</svg>
