<?xml version="1.0" encoding="UTF-8" standalone="no"?>
<!DOCTYPE svg PUBLIC "-//W3C//DTD SVG 1.1//EN"
 "http://www.w3.org/Graphics/SVG/1.1/DTD/svg11.dtd">
<!-- Generated by graphviz version 2.47.3 (20210619.1520)
 -->
<!-- Title: dependencies Pages: 1 -->
<svg width="985pt" height="247pt"
 viewBox="0.00 0.00 985.00 246.80" xmlns="http://www.w3.org/2000/svg" xmlns:xlink="http://www.w3.org/1999/xlink">
<g id="graph0" class="graph" transform="scale(1 1) rotate(0) translate(4 242.8)">
<title>dependencies</title>
<polygon fill="white" stroke="transparent" points="-4,4 -4,-242.8 981,-242.8 981,4 -4,4"/>
<text text-anchor="middle" x="488.5" y="-8.2" font-family="sans-serif" font-size="14.00">dependencies</text>
<g id="clust1" class="cluster">
<title>cluster_AppModule</title>
<polygon fill="none" stroke="black" stroke-dasharray="1,5" points="8,-32.8 8,-230.8 969,-230.8 969,-32.8 8,-32.8"/>
</g>
<g id="clust2" class="cluster">
<title>cluster_AppModule_declarations</title>
<polygon fill="none" stroke="black" points="374,-40.8 374,-92.8 961,-92.8 961,-40.8 374,-40.8"/>
</g>
<g id="clust7" class="cluster">
<title>cluster_AppModule_imports</title>
<polygon fill="none" stroke="black" points="222,-40.8 222,-92.8 366,-92.8 366,-40.8 222,-40.8"/>
</g>
<g id="clust9" class="cluster">
<title>cluster_AppModule_bootstrap</title>
<polygon fill="none" stroke="black" points="488,-170.8 488,-222.8 612,-222.8 612,-170.8 488,-170.8"/>
</g>
<g id="clust10" class="cluster">
<title>cluster_AppModule_providers</title>
<polygon fill="none" stroke="black" points="16,-40.8 16,-92.8 214,-92.8 214,-40.8 16,-40.8"/>
</g>
<!-- AppComponent -->
<g id="node1" class="node">
<title>AppComponent</title>
<polygon fill="#ffffb3" stroke="black" points="952.94,-84.8 847.06,-84.8 847.06,-48.8 952.94,-48.8 952.94,-84.8"/>
<text text-anchor="middle" x="900" y="-62.6" font-family="Times,serif" font-size="14.00">AppComponent</text>
</g>
<!-- AppModule -->
<g id="node5" class="node">
<title>AppModule</title>
<polygon fill="#8dd3c7" stroke="black" points="591.66,-149.8 588.66,-153.8 567.66,-153.8 564.66,-149.8 508.34,-149.8 508.34,-113.8 591.66,-113.8 591.66,-149.8"/>
<text text-anchor="middle" x="550" y="-127.6" font-family="Times,serif" font-size="14.00">AppModule</text>
</g>
<!-- AppComponent&#45;&gt;AppModule -->
<g id="edge1" class="edge">
<title>AppComponent&#45;&gt;AppModule</title>
<path fill="none" stroke="black" d="M900,-85.08C900,-106.12 900,-137.8 900,-137.8 900,-137.8 601.87,-137.8 601.87,-137.8"/>
<polygon fill="black" stroke="black" points="601.87,-134.3 591.87,-137.8 601.87,-141.3 601.87,-134.3"/>
</g>
<!-- HeaderComponent -->
<g id="node2" class="node">
<title>HeaderComponent</title>
<polygon fill="#ffffb3" stroke="black" points="828.74,-84.8 707.26,-84.8 707.26,-48.8 828.74,-48.8 828.74,-84.8"/>
<text text-anchor="middle" x="768" y="-62.6" font-family="Times,serif" font-size="14.00">HeaderComponent</text>
</g>
<!-- HeaderComponent&#45;&gt;AppModule -->
<g id="edge2" class="edge">
<title>HeaderComponent&#45;&gt;AppModule</title>
<path fill="none" stroke="black" d="M768,-84.82C768,-102.17 768,-125.8 768,-125.8 768,-125.8 601.77,-125.8 601.77,-125.8"/>
<polygon fill="black" stroke="black" points="601.77,-122.3 591.77,-125.8 601.77,-129.3 601.77,-122.3"/>
</g>
<!-- HomeComponent -->
<g id="node3" class="node">
<title>HomeComponent</title>
<polygon fill="#ffffb3" stroke="black" points="688.55,-84.8 573.45,-84.8 573.45,-48.8 688.55,-48.8 688.55,-84.8"/>
<text text-anchor="middle" x="631" y="-62.6" font-family="Times,serif" font-size="14.00">HomeComponent</text>
</g>
<!-- HomeComponent&#45;&gt;AppModule -->
<g id="edge3" class="edge">
<title>HomeComponent&#45;&gt;AppModule</title>
<path fill="none" stroke="black" d="M582.53,-84.91C582.53,-84.91 582.53,-103.79 582.53,-103.79"/>
<polygon fill="black" stroke="black" points="579.03,-103.79 582.53,-113.79 586.03,-103.79 579.03,-103.79"/>
</g>
<!-- ModalLanguageComponent -->
<g id="node4" class="node">
<title>ModalLanguageComponent</title>
<polygon fill="#ffffb3" stroke="black" points="555.58,-84.8 382.42,-84.8 382.42,-48.8 555.58,-48.8 555.58,-84.8"/>
<text text-anchor="middle" x="469" y="-62.6" font-family="Times,serif" font-size="14.00">ModalLanguageComponent</text>
</g>
<!-- ModalLanguageComponent&#45;&gt;AppModule -->
<g id="edge4" class="edge">
<title>ModalLanguageComponent&#45;&gt;AppModule</title>
<path fill="none" stroke="black" d="M531.86,-84.91C531.86,-84.91 531.86,-103.79 531.86,-103.79"/>
<polygon fill="black" stroke="black" points="528.36,-103.79 531.86,-113.79 535.36,-103.79 528.36,-103.79"/>
</g>
<!-- AppComponent  -->
<g id="node7" class="node">
<title>AppComponent </title>
<polygon fill="#80b1d3" stroke="black" points="604.44,-214.8 495.56,-214.8 495.56,-178.8 604.44,-178.8 604.44,-214.8"/>
<text text-anchor="middle" x="550" y="-192.6" font-family="Times,serif" font-size="14.00">AppComponent </text>
</g>
<!-- AppModule&#45;&gt;AppComponent  -->
<g id="edge6" class="edge">
<title>AppModule&#45;&gt;AppComponent </title>
<path fill="none" stroke="black" stroke-dasharray="1,5" d="M550,-149.91C550,-149.91 550,-168.79 550,-168.79"/>
<polygon fill="black" stroke="black" points="546.5,-168.79 550,-178.79 553.5,-168.79 546.5,-168.79"/>
</g>
<!-- AppRoutingModule -->
<g id="node6" class="node">
<title>AppRoutingModule</title>
<polygon fill="#8dd3c7" stroke="black" points="358.27,-84.8 355.27,-88.8 334.27,-88.8 331.27,-84.8 229.73,-84.8 229.73,-48.8 358.27,-48.8 358.27,-84.8"/>
<text text-anchor="middle" x="294" y="-62.6" font-family="Times,serif" font-size="14.00">AppRoutingModule</text>
</g>
<!-- AppRoutingModule&#45;&gt;AppModule -->
<g id="edge5" class="edge">
<title>AppRoutingModule&#45;&gt;AppModule</title>
<path fill="none" stroke="black" d="M294,-84.82C294,-102.17 294,-125.8 294,-125.8 294,-125.8 498.3,-125.8 498.3,-125.8"/>
<polygon fill="black" stroke="black" points="498.3,-129.3 508.3,-125.8 498.3,-122.3 498.3,-129.3"/>
</g>
<!-- LanguageInterceptor -->
<g id="node8" class="node">
<title>LanguageInterceptor</title>
<ellipse fill="#fdb462" stroke="black" cx="115" cy="-66.8" rx="91.43" ry="18"/>
<text text-anchor="middle" x="115" y="-62.6" font-family="Times,serif" font-size="14.00">LanguageInterceptor</text>
</g>
<!-- LanguageInterceptor&#45;&gt;AppModule -->
<g id="edge7" class="edge">
<title>LanguageInterceptor&#45;&gt;AppModule</title>
<path fill="none" stroke="black" d="M115,-85.08C115,-106.12 115,-137.8 115,-137.8 115,-137.8 498.29,-137.8 498.29,-137.8"/>
<polygon fill="black" stroke="black" points="498.29,-141.3 508.29,-137.8 498.29,-134.3 498.29,-141.3"/>
</g>
</g>
</svg>
