<?xml version="1.0" encoding="UTF-8" standalone="no"?>
<!DOCTYPE svg PUBLIC "-//W3C//DTD SVG 1.1//EN"
 "http://www.w3.org/Graphics/SVG/1.1/DTD/svg11.dtd">
<!-- Generated by graphviz version 2.47.3 (20210619.1520)
 -->
<!-- Title: dependencies Pages: 1 -->
<svg width="3181pt" height="247pt"
 viewBox="0.00 0.00 3181.00 246.80" xmlns="http://www.w3.org/2000/svg" xmlns:xlink="http://www.w3.org/1999/xlink">
<g id="graph0" class="graph" transform="scale(1 1) rotate(0) translate(4 242.8)">
<title>dependencies</title>
<polygon fill="white" stroke="transparent" points="-4,4 -4,-242.8 3177,-242.8 3177,4 -4,4"/>
<text text-anchor="middle" x="1586.5" y="-8.2" font-family="sans-serif" font-size="14.00">dependencies</text>
<g id="clust1" class="cluster">
<title>cluster_AppModule</title>
<polygon fill="none" stroke="black" stroke-dasharray="1,5" points="8,-32.8 8,-230.8 3165,-230.8 3165,-32.8 8,-32.8"/>
</g>
<g id="clust22" class="cluster">
<title>cluster_AppModule_providers</title>
<polygon fill="none" stroke="black" points="2627,-40.8 2627,-92.8 3157,-92.8 3157,-40.8 2627,-40.8"/>
</g>
<g id="clust19" class="cluster">
<title>cluster_AppModule_imports</title>
<polygon fill="none" stroke="black" points="2475,-40.8 2475,-92.8 2619,-92.8 2619,-40.8 2475,-40.8"/>
</g>
<g id="clust21" class="cluster">
<title>cluster_AppModule_bootstrap</title>
<polygon fill="none" stroke="black" points="1603,-170.8 1603,-222.8 1727,-222.8 1727,-170.8 1603,-170.8"/>
</g>
<g id="clust2" class="cluster">
<title>cluster_AppModule_declarations</title>
<polygon fill="none" stroke="black" points="16,-40.8 16,-92.8 2467,-92.8 2467,-40.8 16,-40.8"/>
</g>
<!-- AppComponent -->
<g id="node1" class="node">
<title>AppComponent</title>
<polygon fill="#ffffb3" stroke="black" points="2458.94,-84.8 2353.06,-84.8 2353.06,-48.8 2458.94,-48.8 2458.94,-84.8"/>
<text text-anchor="middle" x="2406" y="-62.6" font-family="Times,serif" font-size="14.00">AppComponent</text>
</g>
<!-- AppModule -->
<g id="node17" class="node">
<title>AppModule</title>
<polygon fill="#8dd3c7" stroke="black" points="1706.66,-149.8 1703.66,-153.8 1682.66,-153.8 1679.66,-149.8 1623.34,-149.8 1623.34,-113.8 1706.66,-113.8 1706.66,-149.8"/>
<text text-anchor="middle" x="1665" y="-127.6" font-family="Times,serif" font-size="14.00">AppModule</text>
</g>
<!-- AppComponent&#45;&gt;AppModule -->
<g id="edge1" class="edge">
<title>AppComponent&#45;&gt;AppModule</title>
<path fill="none" stroke="black" d="M2406,-84.91C2406,-104.14 2406,-131.8 2406,-131.8 2406,-131.8 1716.69,-131.8 1716.69,-131.8"/>
<polygon fill="black" stroke="black" points="1716.69,-128.3 1706.69,-131.8 1716.69,-135.3 1716.69,-128.3"/>
</g>
<!-- FooterComponent -->
<g id="node2" class="node">
<title>FooterComponent</title>
<polygon fill="#ffffb3" stroke="black" points="2334.88,-84.8 2217.12,-84.8 2217.12,-48.8 2334.88,-48.8 2334.88,-84.8"/>
<text text-anchor="middle" x="2276" y="-62.6" font-family="Times,serif" font-size="14.00">FooterComponent</text>
</g>
<!-- FooterComponent&#45;&gt;AppModule -->
<g id="edge2" class="edge">
<title>FooterComponent&#45;&gt;AppModule</title>
<path fill="none" stroke="black" d="M2276,-85.07C2276,-103.36 2276,-128.8 2276,-128.8 2276,-128.8 1717,-128.8 1717,-128.8"/>
<polygon fill="black" stroke="black" points="1717,-125.3 1707,-128.8 1717,-132.3 1717,-125.3"/>
</g>
<!-- HeaderComponent -->
<g id="node3" class="node">
<title>HeaderComponent</title>
<polygon fill="#ffffb3" stroke="black" points="2198.74,-84.8 2077.26,-84.8 2077.26,-48.8 2198.74,-48.8 2198.74,-84.8"/>
<text text-anchor="middle" x="2138" y="-62.6" font-family="Times,serif" font-size="14.00">HeaderComponent</text>
</g>
<!-- HeaderComponent&#45;&gt;AppModule -->
<g id="edge3" class="edge">
<title>HeaderComponent&#45;&gt;AppModule</title>
<path fill="none" stroke="black" d="M2138,-84.83C2138,-101.86 2138,-124.8 2138,-124.8 2138,-124.8 1716.98,-124.8 1716.98,-124.8"/>
<polygon fill="black" stroke="black" points="1716.98,-121.3 1706.98,-124.8 1716.98,-128.3 1716.98,-121.3"/>
</g>
<!-- HomeComponent -->
<g id="node4" class="node">
<title>HomeComponent</title>
<polygon fill="#ffffb3" stroke="black" points="2058.55,-84.8 1943.45,-84.8 1943.45,-48.8 2058.55,-48.8 2058.55,-84.8"/>
<text text-anchor="middle" x="2001" y="-62.6" font-family="Times,serif" font-size="14.00">HomeComponent</text>
</g>
<!-- HomeComponent&#45;&gt;AppModule -->
<g id="edge4" class="edge">
<title>HomeComponent&#45;&gt;AppModule</title>
<path fill="none" stroke="black" d="M2001,-84.81C2001,-100.85 2001,-121.8 2001,-121.8 2001,-121.8 1716.88,-121.8 1716.88,-121.8"/>
<polygon fill="black" stroke="black" points="1716.88,-118.3 1706.88,-121.8 1716.88,-125.3 1716.88,-118.3"/>
</g>
<!-- LearnComponent -->
<g id="node5" class="node">
<title>LearnComponent</title>
<polygon fill="#ffffb3" stroke="black" points="1924.97,-84.8 1811.03,-84.8 1811.03,-48.8 1924.97,-48.8 1924.97,-84.8"/>
<text text-anchor="middle" x="1868" y="-62.6" font-family="Times,serif" font-size="14.00">LearnComponent</text>
</g>
<!-- LearnComponent&#45;&gt;AppModule -->
<g id="edge5" class="edge">
<title>LearnComponent&#45;&gt;AppModule</title>
<path fill="none" stroke="black" d="M1868,-84.92C1868,-99.58 1868,-117.8 1868,-117.8 1868,-117.8 1717.06,-117.8 1717.06,-117.8"/>
<polygon fill="black" stroke="black" points="1717.06,-114.3 1707.06,-117.8 1717.06,-121.3 1717.06,-114.3"/>
</g>
<!-- LoaderComponent -->
<g id="node6" class="node">
<title>LoaderComponent</title>
<polygon fill="#ffffb3" stroke="black" points="1793.47,-84.8 1672.53,-84.8 1672.53,-48.8 1793.47,-48.8 1793.47,-84.8"/>
<text text-anchor="middle" x="1733" y="-62.6" font-family="Times,serif" font-size="14.00">LoaderComponent</text>
</g>
<!-- LoaderComponent&#45;&gt;AppModule -->
<g id="edge6" class="edge">
<title>LoaderComponent&#45;&gt;AppModule</title>
<path fill="none" stroke="black" d="M1689.67,-84.91C1689.67,-84.91 1689.67,-103.79 1689.67,-103.79"/>
<polygon fill="black" stroke="black" points="1686.17,-103.79 1689.67,-113.79 1693.17,-103.79 1686.17,-103.79"/>
</g>
<!-- LoginComponent -->
<g id="node7" class="node">
<title>LoginComponent</title>
<polygon fill="#ffffb3" stroke="black" points="1654.28,-84.8 1539.72,-84.8 1539.72,-48.8 1654.28,-48.8 1654.28,-84.8"/>
<text text-anchor="middle" x="1597" y="-62.6" font-family="Times,serif" font-size="14.00">LoginComponent</text>
</g>
<!-- LoginComponent&#45;&gt;AppModule -->
<g id="edge7" class="edge">
<title>LoginComponent&#45;&gt;AppModule</title>
<path fill="none" stroke="black" d="M1638.78,-84.91C1638.78,-84.91 1638.78,-103.79 1638.78,-103.79"/>
<polygon fill="black" stroke="black" points="1635.28,-103.79 1638.78,-113.79 1642.28,-103.79 1635.28,-103.79"/>
</g>
<!-- ModalLanguageComponent -->
<g id="node8" class="node">
<title>ModalLanguageComponent</title>
<polygon fill="#ffffb3" stroke="black" points="1521.58,-84.8 1348.42,-84.8 1348.42,-48.8 1521.58,-48.8 1521.58,-84.8"/>
<text text-anchor="middle" x="1435" y="-62.6" font-family="Times,serif" font-size="14.00">ModalLanguageComponent</text>
</g>
<!-- ModalLanguageComponent&#45;&gt;AppModule -->
<g id="edge8" class="edge">
<title>ModalLanguageComponent&#45;&gt;AppModule</title>
<path fill="none" stroke="black" d="M1435,-84.92C1435,-99.58 1435,-117.8 1435,-117.8 1435,-117.8 1613.08,-117.8 1613.08,-117.8"/>
<polygon fill="black" stroke="black" points="1613.08,-121.3 1623.08,-117.8 1613.08,-114.3 1613.08,-121.3"/>
</g>
<!-- ModalLoginComponent -->
<g id="node9" class="node">
<title>ModalLoginComponent</title>
<polygon fill="#ffffb3" stroke="black" points="1330.83,-84.8 1179.17,-84.8 1179.17,-48.8 1330.83,-48.8 1330.83,-84.8"/>
<text text-anchor="middle" x="1255" y="-62.6" font-family="Times,serif" font-size="14.00">ModalLoginComponent</text>
</g>
<!-- ModalLoginComponent&#45;&gt;AppModule -->
<g id="edge9" class="edge">
<title>ModalLoginComponent&#45;&gt;AppModule</title>
<path fill="none" stroke="black" d="M1255,-84.81C1255,-100.85 1255,-121.8 1255,-121.8 1255,-121.8 1613.05,-121.8 1613.05,-121.8"/>
<polygon fill="black" stroke="black" points="1613.05,-125.3 1623.05,-121.8 1613.05,-118.3 1613.05,-125.3"/>
</g>
<!-- Page404Component -->
<g id="node10" class="node">
<title>Page404Component</title>
<polygon fill="#ffffb3" stroke="black" points="1161.54,-84.8 1032.46,-84.8 1032.46,-48.8 1161.54,-48.8 1161.54,-84.8"/>
<text text-anchor="middle" x="1097" y="-62.6" font-family="Times,serif" font-size="14.00">Page404Component</text>
</g>
<!-- Page404Component&#45;&gt;AppModule -->
<g id="edge10" class="edge">
<title>Page404Component&#45;&gt;AppModule</title>
<path fill="none" stroke="black" d="M1097,-84.83C1097,-101.86 1097,-124.8 1097,-124.8 1097,-124.8 1613.23,-124.8 1613.23,-124.8"/>
<polygon fill="black" stroke="black" points="1613.23,-128.3 1623.23,-124.8 1613.23,-121.3 1613.23,-128.3"/>
</g>
<!-- PrivacityComponent -->
<g id="node11" class="node">
<title>PrivacityComponent</title>
<polygon fill="#ffffb3" stroke="black" points="1013.88,-84.8 882.12,-84.8 882.12,-48.8 1013.88,-48.8 1013.88,-84.8"/>
<text text-anchor="middle" x="948" y="-62.6" font-family="Times,serif" font-size="14.00">PrivacityComponent</text>
</g>
<!-- PrivacityComponent&#45;&gt;AppModule -->
<g id="edge11" class="edge">
<title>PrivacityComponent&#45;&gt;AppModule</title>
<path fill="none" stroke="black" d="M948,-85.07C948,-103.36 948,-128.8 948,-128.8 948,-128.8 1613.09,-128.8 1613.09,-128.8"/>
<polygon fill="black" stroke="black" points="1613.09,-132.3 1623.09,-128.8 1613.09,-125.3 1613.09,-132.3"/>
</g>
<!-- ProductsComponent -->
<g id="node12" class="node">
<title>ProductsComponent</title>
<polygon fill="#ffffb3" stroke="black" points="864.33,-84.8 733.67,-84.8 733.67,-48.8 864.33,-48.8 864.33,-84.8"/>
<text text-anchor="middle" x="799" y="-62.6" font-family="Times,serif" font-size="14.00">ProductsComponent</text>
</g>
<!-- ProductsComponent&#45;&gt;AppModule -->
<g id="edge12" class="edge">
<title>ProductsComponent&#45;&gt;AppModule</title>
<path fill="none" stroke="black" d="M799,-84.91C799,-104.14 799,-131.8 799,-131.8 799,-131.8 1613.23,-131.8 1613.23,-131.8"/>
<polygon fill="black" stroke="black" points="1613.23,-135.3 1623.23,-131.8 1613.23,-128.3 1613.23,-135.3"/>
</g>
<!-- SafetyComponent -->
<g id="node13" class="node">
<title>SafetyComponent</title>
<polygon fill="#ffffb3" stroke="black" points="715.6,-84.8 598.4,-84.8 598.4,-48.8 715.6,-48.8 715.6,-84.8"/>
<text text-anchor="middle" x="657" y="-62.6" font-family="Times,serif" font-size="14.00">SafetyComponent</text>
</g>
<!-- SafetyComponent&#45;&gt;AppModule -->
<g id="edge13" class="edge">
<title>SafetyComponent&#45;&gt;AppModule</title>
<path fill="none" stroke="black" d="M657,-84.93C657,-105.37 657,-135.8 657,-135.8 657,-135.8 1613.29,-135.8 1613.29,-135.8"/>
<polygon fill="black" stroke="black" points="1613.29,-139.3 1623.29,-135.8 1613.29,-132.3 1613.29,-139.3"/>
</g>
<!-- SecretLoveMegaComponent -->
<g id="node14" class="node">
<title>SecretLoveMegaComponent</title>
<polygon fill="#ffffb3" stroke="black" points="580.45,-84.8 403.55,-84.8 403.55,-48.8 580.45,-48.8 580.45,-84.8"/>
<text text-anchor="middle" x="492" y="-62.6" font-family="Times,serif" font-size="14.00">SecretLoveMegaComponent</text>
</g>
<!-- SecretLoveMegaComponent&#45;&gt;AppModule -->
<g id="edge14" class="edge">
<title>SecretLoveMegaComponent&#45;&gt;AppModule</title>
<path fill="none" stroke="black" d="M492,-84.84C492,-106.46 492,-139.8 492,-139.8 492,-139.8 1613.25,-139.8 1613.25,-139.8"/>
<polygon fill="black" stroke="black" points="1613.25,-143.3 1623.25,-139.8 1613.25,-136.3 1613.25,-143.3"/>
</g>
<!-- SecretLovePlusComponent -->
<g id="node15" class="node">
<title>SecretLovePlusComponent</title>
<polygon fill="#ffffb3" stroke="black" points="385.7,-84.8 216.3,-84.8 216.3,-48.8 385.7,-48.8 385.7,-84.8"/>
<text text-anchor="middle" x="301" y="-62.6" font-family="Times,serif" font-size="14.00">SecretLovePlusComponent</text>
</g>
<!-- SecretLovePlusComponent&#45;&gt;AppModule -->
<g id="edge15" class="edge">
<title>SecretLovePlusComponent&#45;&gt;AppModule</title>
<path fill="none" stroke="black" d="M301,-84.81C301,-107.29 301,-142.8 301,-142.8 301,-142.8 1613.06,-142.8 1613.06,-142.8"/>
<polygon fill="black" stroke="black" points="1613.06,-146.3 1623.06,-142.8 1613.06,-139.3 1613.06,-146.3"/>
</g>
<!-- SecretLoveUltraComponent -->
<g id="node16" class="node">
<title>SecretLoveUltraComponent</title>
<polygon fill="#ffffb3" stroke="black" points="197.84,-84.8 24.16,-84.8 24.16,-48.8 197.84,-48.8 197.84,-84.8"/>
<text text-anchor="middle" x="111" y="-62.6" font-family="Times,serif" font-size="14.00">SecretLoveUltraComponent</text>
</g>
<!-- SecretLoveUltraComponent&#45;&gt;AppModule -->
<g id="edge16" class="edge">
<title>SecretLoveUltraComponent&#45;&gt;AppModule</title>
<path fill="none" stroke="black" d="M111,-84.95C111,-108.56 111,-146.8 111,-146.8 111,-146.8 1613.03,-146.8 1613.03,-146.8"/>
<polygon fill="black" stroke="black" points="1613.03,-150.3 1623.03,-146.8 1613.03,-143.3 1613.03,-150.3"/>
</g>
<!-- AppComponent  -->
<g id="node19" class="node">
<title>AppComponent </title>
<polygon fill="#80b1d3" stroke="black" points="1719.44,-214.8 1610.56,-214.8 1610.56,-178.8 1719.44,-178.8 1719.44,-214.8"/>
<text text-anchor="middle" x="1665" y="-192.6" font-family="Times,serif" font-size="14.00">AppComponent </text>
</g>
<!-- AppModule&#45;&gt;AppComponent  -->
<g id="edge18" class="edge">
<title>AppModule&#45;&gt;AppComponent </title>
<path fill="none" stroke="black" stroke-dasharray="1,5" d="M1665,-149.91C1665,-149.91 1665,-168.79 1665,-168.79"/>
<polygon fill="black" stroke="black" points="1661.5,-168.79 1665,-178.79 1668.5,-168.79 1661.5,-168.79"/>
</g>
<!-- AppRoutingModule -->
<g id="node18" class="node">
<title>AppRoutingModule</title>
<polygon fill="#8dd3c7" stroke="black" points="2611.27,-84.8 2608.27,-88.8 2587.27,-88.8 2584.27,-84.8 2482.73,-84.8 2482.73,-48.8 2611.27,-48.8 2611.27,-84.8"/>
<text text-anchor="middle" x="2547" y="-62.6" font-family="Times,serif" font-size="14.00">AppRoutingModule</text>
</g>
<!-- AppRoutingModule&#45;&gt;AppModule -->
<g id="edge17" class="edge">
<title>AppRoutingModule&#45;&gt;AppModule</title>
<path fill="none" stroke="black" d="M2547,-84.93C2547,-105.37 2547,-135.8 2547,-135.8 2547,-135.8 1716.95,-135.8 1716.95,-135.8"/>
<polygon fill="black" stroke="black" points="1716.95,-132.3 1706.95,-135.8 1716.95,-139.3 1716.95,-132.3"/>
</g>
<!-- LanguageInterceptor -->
<g id="node20" class="node">
<title>LanguageInterceptor</title>
<ellipse fill="#fdb462" stroke="black" cx="3058" cy="-66.8" rx="91.43" ry="18"/>
<text text-anchor="middle" x="3058" y="-62.6" font-family="Times,serif" font-size="14.00">LanguageInterceptor</text>
</g>
<!-- LanguageInterceptor&#45;&gt;AppModule -->
<g id="edge19" class="edge">
<title>LanguageInterceptor&#45;&gt;AppModule</title>
<path fill="none" stroke="black" d="M3058,-84.95C3058,-108.56 3058,-146.8 3058,-146.8 3058,-146.8 1716.69,-146.8 1716.69,-146.8"/>
<polygon fill="black" stroke="black" points="1716.69,-143.3 1706.69,-146.8 1716.69,-150.3 1716.69,-143.3"/>
</g>
<!-- LoaderInterceptor -->
<g id="node21" class="node">
<title>LoaderInterceptor</title>
<ellipse fill="#fdb462" stroke="black" cx="2868" cy="-66.8" rx="80.98" ry="18"/>
<text text-anchor="middle" x="2868" y="-62.6" font-family="Times,serif" font-size="14.00">LoaderInterceptor</text>
</g>
<!-- LoaderInterceptor&#45;&gt;AppModule -->
<g id="edge20" class="edge">
<title>LoaderInterceptor&#45;&gt;AppModule</title>
<path fill="none" stroke="black" d="M2868,-84.81C2868,-107.29 2868,-142.8 2868,-142.8 2868,-142.8 1716.76,-142.8 1716.76,-142.8"/>
<polygon fill="black" stroke="black" points="1716.76,-139.3 1706.76,-142.8 1716.76,-146.3 1716.76,-139.3"/>
</g>
<!-- LoaderService -->
<g id="node22" class="node">
<title>LoaderService</title>
<ellipse fill="#fdb462" stroke="black" cx="2702" cy="-66.8" rx="67.17" ry="18"/>
<text text-anchor="middle" x="2702" y="-62.6" font-family="Times,serif" font-size="14.00">LoaderService</text>
</g>
<!-- LoaderService&#45;&gt;AppModule -->
<g id="edge21" class="edge">
<title>LoaderService&#45;&gt;AppModule</title>
<path fill="none" stroke="black" d="M2702,-84.84C2702,-106.46 2702,-139.8 2702,-139.8 2702,-139.8 1716.94,-139.8 1716.94,-139.8"/>
<polygon fill="black" stroke="black" points="1716.94,-136.3 1706.94,-139.8 1716.94,-143.3 1716.94,-136.3"/>
</g>
</g>
</svg>
